PathFileType	4	(X/Y/Z)	C:/Users/opensim2020/Desktop/walking_exp_matlab/subject02_walking11_straight_04.trc																																																																																																																												
DataRate	CameraRate	NumFrames	NumMarkers	Units	OrigDataRate	OrigDataStartFrame	OrigNumFrames																																																																																																																								
100	100	9	42	mm	100	3425	227																																																																																																																								
Frame#	Time	LFHD			RFHD			LBHD			RBHD			C7			T10			CLAV			STRN			RBAK			LSHO			LUPA			LELB			LFRM			LWRA			LWRB			LFIN			RSHO			RUPA			RELB			RFRM			RWRA			RWRB			RFIN			LASI			RASI			LPSI			RPSI			LTHI			LKNE			LTIB			LANK			LHEE			LTOE			RTHI			RKNE			RTIB			RANK			RHEE			RTOE			*39			*40			*41		
		X1	Y1	Z1	X2	Y2	Z2	X3	Y3	Z3	X4	Y4	Z4	X5	Y5	Z5	X6	Y6	Z6	X7	Y7	Z7	X8	Y8	Z8	X9	Y9	Z9	X10	Y10	Z10	X11	Y11	Z11	X12	Y12	Z12	X13	Y13	Z13	X14	Y14	Z14	X15	Y15	Z15	X16	Y16	Z16	X17	Y17	Z17	X18	Y18	Z18	X19	Y19	Z19	X20	Y20	Z20	X21	Y21	Z21	X22	Y22	Z22	X23	Y23	Z23	X24	Y24	Z24	X25	Y25	Z25	X26	Y26	Z26	X27	Y27	Z27	X28	Y28	Z28	X29	Y29	Z29	X30	Y30	Z30	X31	Y31	Z31	X32	Y32	Z32	X33	Y33	Z33	X34	Y34	Z34	X35	Y35	Z35	X36	Y36	Z36	X37	Y37	Z37	X38	Y38	Z38	X39	Y39	Z39	X40	Y40	Z40	X41	Y41	Z41	X42	Y42	Z42
																																																																																																																															
199	1.98	760.42139	1717.57214	941.62897	769.37463	1704.24854	1084.22107	628.06866	1645.89453	946.05981	624.79797	1631.57605	1088.36755	580.32202	1502.21448	1030.57166	536.76215	1226.58362	1045.72327	723.03674	1438.97778	1008.96014	781.83411	1270.71838	1029.77271	533.66644	1331.07361	1106.8717	631.96771	1466.71472	846.0592	594.565	1265.6394	777.12012	572.69507	1128.48865	776.68005	551.91418	1001.091	758.68445	583.83875	864.67181	768.29529	532.29346	879.26886	750.55383	535.03302	812.802	740.73102	676.92395	1482.13367	1210.35559	689.72974	1292.77209	1306.146	738.2746	1154.26636	1330.80298	803.86353	1052.3064	1343.99841	884.77899	946.67297	1316.33923	848.1543	930.00745	1355.66382	904.17181	884.1488	1351.97644	788.05042	971.23181	918.86902	773.93152	955.16339	1176.88647	571.14227	1007.97876	985.58075	559.56055	1007.49231	1099.23108	776.14252	669.44269	850.57629	803.96338	470.71536	891.01978	793.77081	276.15189	904.25873	846.05829	62.81689	935.40039	826.42188	37.53389	995.31885	998.02014	32.49928	893.37476	630.3833	662.07635	1237.52966	577.71002	457.5358	1206.50745	464.51434	304.39368	1208.02234	375.55307	131.33888	1175.28796	330.09637	89.15241	1116.66895	502.29605	34.66981	1199.80505	665.87927	1788.55444	1035.15564	-2845.20435	1034.16931	3360.27734	NaN	NaN	NaN
200	1.99	768.01489	1718.88428	938.85522	776.88947	1705.30396	1081.40308	635.58081	1646.74341	942.81067	632.54846	1632.15967	1085.15405	589.06299	1503.42957	1026.96045	545.89215	1226.93372	1042.71582	730.53717	1439.53723	1006.13379	790.33545	1271.7301	1026.50244	541.95355	1331.1001	1102.93616	640.70789	1467.02344	842.3775	604.98718	1265.49951	773.76447	583.66144	1128.09351	773.31921	563.15784	1000.15088	756.0318	597.63104	864.34235	766.16577	545.55371	878.33752	748.07269	548.58655	812.06476	738.34753	684.57257	1482.11597	1207.63074	696.20972	1291.87219	1302.62183	743.99738	1153.47229	1327.198	808.30597	1050.6936	1340.58362	888.23016	944.16913	1313.4386	851.23163	928.03864	1352.57361	906.72888	881.61151	1349.22717	798.10559	972.22205	915.11401	783.85547	955.13641	1173.27454	580.50366	1010.15979	982.0459	569.57367	1007.61493	1095.92822	785.56647	671.33051	849.16986	814.46985	472.67636	888.33411	799.64905	278.15262	897.93317	846.75928	64.22676	934.80865	825.92554	38.0511	994.35339	999.13397	31.82897	893.49652	640.29974	662.8653	1235.30261	587.52301	458.70245	1206.16785	471.38815	307.87729	1207.85413	379.32968	136.51395	1176.03503	333.2901	95.50645	1117.22009	502.9455	34.66874	1200.19348	673.1839	1789.30688	1032.10339	-2845.21704	1034.2251	3360.4353	NaN	NaN	NaN
201	2	775.93011	1720.08655	936.25989	784.34375	1706.42004	1078.50537	643.82562	1647.56104	939.38104	640.37402	1632.67432	1081.8103	597.76813	1504.9314	1023.8512	554.87921	1227.45068	1039.82275	738.867	1440.60559	1003.04688	798.88452	1272.92322	1023.15967	550.19971	1331.40149	1099.75049	649.58875	1467.7738	838.89532	615.38647	1265.77795	770.39227	594.81622	1127.85815	770.48737	575.71722	999.97552	752.9989	611.65039	864.14764	764.08972	559.34705	877.97961	745.54791	562.76202	811.6991	735.98724	692.40936	1482.56653	1204.76941	702.38489	1291.61682	1299.14917	749.56671	1153.18677	1323.58069	812.34601	1049.35205	1336.79993	891.18005	941.99188	1310.41272	853.80267	926.40924	1349.45557	908.76074	879.4248	1346.57678	807.72339	973.67657	910.99677	793.6889	955.50293	1169.3429	589.93994	1012.23773	978.75397	580.04553	1008.57642	1093.17554	796.84985	673.26807	847.4281	823.94257	473.92209	885.79169	805.9187	279.76624	894.07635	847.90393	64.48426	934.19519	826.65009	37.49383	994.04358	1000.3017	31.07254	893.10901	650.57294	663.73181	1233.06213	598.28882	459.97159	1206.39966	479.13086	311.521	1207.82239	383.50342	142.0027	1176.78186	337.12329	102.32379	1117.57703	503.47119	34.95202	1200.63379	680.30994	1790.05139	1028.93555	-2845.26831	1034.11267	3360.45239	NaN	NaN	NaN
202	2.01	783.03259	1721.3407	932.78699	791.74323	1707.70813	1075.52539	652.01892	1648.09973	936.41821	647.98486	1633.24158	1078.79895	605.70459	1505.96069	1020.83527	563.7323	1228.00806	1037.04919	746.51599	1441.45129	1000.22827	807.47461	1274.22778	1019.81226	558.80627	1331.95081	1096.15088	658.50623	1468.92615	835.67523	625.74969	1266.46497	767.07324	606.07892	1128.3175	767.42303	588.3266	1000.17242	750.04663	624.35199	864.69659	761.74323	572.79913	877.91943	742.76697	577.60022	811.85028	733.58557	700.61395	1483.3252	1201.9364	708.60449	1291.97363	1295.32703	755.25793	1153.08606	1318.95605	816.4295	1048.71484	1333.18994	893.73724	939.9527	1307.34668	855.91827	925.27069	1346.33105	910.44641	877.44385	1343.96204	816.95752	975.78101	906.87469	803.53638	956.25311	1164.97473	599.00018	1013.93225	975.7265	590.39459	1009.82428	1090.83044	808.7204	674.68536	844.83557	832.14081	474.51401	883.59772	810.62677	280.57166	892.35406	848.6889	64.40156	933.95709	826.97552	37.8438	994.1001	1001.1319	30.62596	893.54498	661.15222	664.61334	1230.88647	609.90515	461.14395	1206.96631	487.33142	315.37598	1208.41309	388.3981	147.62167	1177.47229	341.952	109.46236	1117.56274	504.08081	34.86674	1200.73364	687.79248	1791.15063	1026.41809	-2845.19531	1034.15808	3360.3103	NaN	NaN	NaN
203	2.02	790.17999	1722.70874	929.85699	799.05334	1709.14539	1072.52051	659.09277	1648.78882	933.41333	655.69604	1634.03662	1075.80737	613.67401	1506.85486	1018.2356	572.44623	1228.63525	1034.18481	754.91278	1442.72351	997.15045	816.10205	1275.56738	1016.47101	567.06525	1332.85437	1093.80322	667.27747	1470.34741	832.64398	635.88226	1267.49731	763.80048	618.02765	1129.09631	764.36237	602.07361	1001.01953	746.86664	638.97424	865.50439	759.53955	587.73376	878.40704	739.82245	592.89282	812.21869	731.14899	708.83807	1484.56543	1198.9137	715.07556	1292.75122	1291.17017	760.80676	1153.69788	1315.13892	820.58264	1048.44958	1329.73926	896.13098	938.38409	1304.33521	857.86829	924.38422	1343.1936	911.57104	875.95886	1341.28735	826.01642	978.82635	902.98474	813.25854	957.31146	1160.32117	607.46716	1015.18866	972.78662	600.58801	1010.97095	1088.53174	821.24365	675.56989	841.87469	838.90686	474.40244	881.42792	814.09558	280.55475	891.03992	849.01923	64.4753	933.75549	827.05908	37.88229	993.90369	1002.02075	30.33344	893.84424	671.93176	665.44379	1228.74951	622.31598	462.12018	1208.00452	496.74985	318.91364	1208.84155	394.14313	153.45929	1178.26392	347.44757	117.14906	1117.79565	504.48734	34.52652	1200.92212	694.5965	1791.98413	1023.36298	NaN	NaN	NaN	NaN	NaN	NaN
204	2.03	797.50134	1724.0199	926.75769	806.27576	1710.65942	1069.52502	666.80505	1649.48547	930.38861	663.37512	1634.71594	1072.64636	621.15747	1507.12073	1015.37646	580.93756	1229.35938	1031.1521	762.6203	1443.74036	994.42059	824.48096	1276.80017	1013.21295	575.65796	1333.41492	1090.89685	675.73578	1471.96423	829.85699	645.56354	1268.90076	760.60522	629.2099	1130.54883	761.1416	615.26587	1001.81342	744.03955	654.06598	867.05286	757.03656	603.18372	879.15863	736.81665	608.68726	812.7323	728.60333	717.04968	1486.14417	1195.71106	721.79224	1293.91113	1287.31836	766.28699	1154.79919	1311.5752	824.46399	1048.45642	1326.18347	898.34662	937.0321	1301.44788	859.64984	923.73059	1340.1521	912.5885	874.45502	1338.64502	834.96527	982.3067	899.1908	822.46387	958.39752	1155.44983	616.33038	1016.04156	969.98102	610.54102	1012.05316	1086.1582	832.38434	676.16803	839.1615	844.40717	473.91971	879.24554	816.44592	280.11557	890.20782	849.31641	64.33714	933.94415	827.06616	37.93789	993.85553	1002.38129	30.0517	893.80725	682.83972	666.14069	1226.62268	635.49402	462.90967	1209.31189	506.67368	322.62442	1210.05457	400.608	159.67819	1178.61536	354.03391	125.14562	1117.86963	505.56866	34.69567	1200.98547	701.02637	1792.85107	1020.10577	-2846.08691	1034.2395	3356.8999	NaN	NaN	NaN
205	2.04	804.59491	1725.32104	923.73083	813.43958	1712.23987	1066.48157	674.36963	1650.19507	927.39368	670.93835	1635.70789	1069.74536	628.92841	1507.64783	1012.90997	589.3866	1230.09802	1028.02783	770.69507	1445.08618	991.47455	833.12946	1278.2843	1009.99329	584.1698	1334.32458	1088.25574	683.81256	1473.73096	827.21814	656.04303	1270.39148	757.27039	641.29987	1131.52112	757.71643	628.8913	1002.90692	740.63013	669.17419	868.47467	754.64978	617.94867	880.05042	733.60931	624.57355	813.4209	725.94989	725.1452	1487.62085	1192.58118	728.6134	1295.31555	1284.03748	771.74854	1155.547	1307.17053	828.28918	1048.63599	1322.75208	900.7594	935.97528	1298.59717	861.32886	923.41974	1337.47107	913.48334	872.9751	1335.95935	843.70074	985.78595	895.41254	831.29944	959.52081	1150.51746	625.0426	1016.4635	967.29047	620.09583	1012.97821	1083.52551	841.95471	676.9881	836.16455	848.7851	473.33551	877.19861	817.73816	279.8454	890.24762	849.45313	64.27723	934.1897	827.02179	37.96135	993.72406	1002.61273	29.89935	893.96411	693.84955	666.68506	1224.76697	649.21619	463.53296	1210.76575	517.57159	326.01529	1211.19617	408.23407	165.75996	1179.4375	361.61816	133.46063	1118.02087	506.56061	34.71707	1200.8844	708.00897	1793.73633	1016.73444	NaN	NaN	NaN	NaN	NaN	NaN
206	2.05	811.45172	1726.61243	920.7265	820.5332	1713.81067	1063.49878	681.37805	1650.97766	924.76416	678.21155	1636.72803	1067.06787	636.40338	1508.2926	1009.85797	597.81464	1230.8009	1024.90332	778.67352	1446.48755	988.70544	841.59332	1279.69946	1006.87262	592.50647	1335.2887	1085.86121	691.74707	1475.50317	824.58221	665.9328	1271.72742	754.00409	653.2182	1132.93616	754.41882	643.09711	1004.25024	737.36121	684.59546	870.10712	752.08826	633.56122	880.98798	730.37372	641.09949	814.2981	723.32715	733.07458	1489.10254	1189.42749	735.77234	1296.5968	1280.18225	777.24225	1156.51416	1303.03992	832.09619	1048.88196	1319.48621	903.08655	934.92773	1295.93567	863.13873	923.05072	1334.59851	914.41016	871.52423	1333.20508	852.25482	988.88837	891.44299	840.99792	961.10132	1145.67102	633.99957	1016.62677	964.24493	629.20544	1013.85425	1080.57349	849.58624	677.46869	833.09576	852.17566	473.09918	875.19196	818.28613	280.03082	890.17975	849.60657	64.29994	934.2594	826.96735	38.03619	993.69965	1002.98956	29.83223	894.14734	704.83398	666.98767	1223.03418	663.35083	463.80804	1212.3374	529.3277	329.28671	1212.60522	416.78949	171.74179	1180.4187	370.15393	141.82631	1118.25317	507.91879	34.91502	1200.55627	714.70367	1794.92712	1013.78961	NaN	NaN	NaN	NaN	NaN	NaN
207	2.06	818.41064	1727.68738	917.98181	827.49719	1715.40393	1060.53064	688.5144	1651.82275	921.95032	685.43921	1637.85229	1064.44556	644.19904	1509.1936	1007.04895	606.13904	1231.51538	1021.85071	786.60388	1447.89087	985.88922	849.96466	1281.11047	1003.80939	600.71228	1336.3291	1083.52905	699.56616	1477.11975	821.9632	676.14941	1273.20447	750.79602	665.48004	1134.31311	750.98169	657.18207	1005.53143	733.90002	701.05383	871.96082	749.86041	649.61926	881.92798	726.99939	658.77222	815.22791	720.72797	740.91406	1490.37219	1186.37683	742.83209	1297.94324	1277.48877	782.58405	1157.59778	1299.85938	835.90656	1049.13379	1316.60461	905.15039	933.62201	1293.2677	865.20709	922.81805	1331.92529	915.34619	869.92328	1330.53638	860.41882	991.26849	887.43158	849.58124	962.35193	1140.81042	642.79065	1016.75531	960.94916	637.83704	1014.74371	1077.22961	856.47571	677.81104	830.23767	854.81763	472.98599	873.26733	818.87958	280.43631	889.58264	849.73083	64.23209	934.18311	826.64948	38.36101	993.16858	1003.09918	29.70136	894.3667	715.82538	667.1535	1221.38538	677.78278	464.29346	1213.56738	541.68158	332.46539	1214.00159	426.35336	177.58829	1181.58997	379.47601	149.92502	1119.00574	509.78217	35.31038	1199.88123	721.31097	1795.91418	1010.61426	NaN	NaN	NaN	NaN	NaN	NaN
